<?xml version="1.0" standalone="no"?>
<!DOCTYPE svg PUBLIC "-//W3C//DTD SVG 20010904//EN"
 "http://www.w3.org/TR/2001/REC-SVG-20010904/DTD/svg10.dtd">
<svg version="1.0" xmlns="http://www.w3.org/2000/svg"
 width="1920.000000pt" height="1920.000000pt" viewBox="0 0 1920.000000 1920.000000"
 preserveAspectRatio="xMidYMid meet">

<g transform="translate(0.000000,1920.000000) scale(0.100000,-0.100000)"
fill="#000000" stroke="none">
<path d="M3251 13914 c-126 -34 -249 -132 -305 -242 -59 -117 -56 52 -56
-2707 0 -2492 0 -2530 20 -2562 10 -18 33 -39 49 -48 27 -14 394 -15 3660 -13
l3630 3 28 21 c15 11 36 36 46 55 16 32 17 172 15 2604 l-3 2570 -22 55 c-46
111 -142 207 -253 253 l-55 22 -3350 2 c-2902 2 -3357 0 -3404 -13z"/>
<path d="M11308 13020 c-176 -30 -323 -188 -342 -367 -2 -26 -5 -1131 -5
-2455 l-1 -2408 -1905 0 c-1048 0 -1905 -2 -1905 -5 0 -3 20 -30 44 -60 185
-226 323 -535 371 -827 l6 -38 2157 0 2158 0 18 94 c30 166 76 297 163 470
203 408 608 746 1040 871 206 60 273 69 508 69 201 0 231 -2 346 -27 237 -50
429 -131 635 -268 139 -92 361 -311 451 -445 137 -202 240 -448 280 -666 l18
-98 545 0 545 0 52 24 c36 17 60 38 80 67 l28 42 3 335 3 334 -26 44 c-40 69
-80 84 -220 84 l-115 0 0 1158 c0 746 -4 1198 -11 1272 -26 277 -107 530 -243
753 -27 44 -139 206 -250 360 -111 155 -378 528 -594 828 -215 300 -414 569
-443 597 -99 100 -227 167 -369 195 -51 10 -174 17 -380 21 -168 4 -748 15
-1290 26 -542 10 -1057 21 -1145 23 -88 3 -181 1 -207 -3z m2782 -847 c76 -37
117 -78 192 -188 30 -44 219 -321 420 -615 201 -294 376 -552 388 -572 19 -32
20 -43 11 -69 -22 -63 102 -58 -1687 -59 l-1641 0 -34 23 c-72 48 -70 19 -67
717 3 619 3 625 25 665 28 52 67 89 123 114 45 20 56 21 1125 18 l1080 -2 65
-32z m-1719 -1871 c33 -36 37 -77 14 -121 -25 -49 -46 -52 -374 -49 l-303 3
-24 28 c-44 52 -23 141 40 167 11 5 155 8 319 7 l299 -2 29 -33z"/>
<path d="M5725 7984 c-370 -53 -605 -165 -840 -399 -347 -345 -479 -821 -360
-1290 129 -510 550 -902 1080 -1006 106 -21 388 -18 495 5 555 120 956 525
1076 1086 13 62 18 129 18 245 1 177 -14 271 -65 428 -155 473 -578 835 -1074
917 -68 12 -284 21 -330 14z m221 -785 c127 -23 270 -107 344 -200 114 -145
156 -336 110 -513 -27 -108 -74 -190 -150 -266 -177 -178 -436 -220 -670 -108
-257 123 -382 432 -286 709 93 268 371 430 652 378z"/>
<path d="M13466 7979 c-258 -30 -515 -140 -712 -305 -242 -202 -404 -472 -471
-784 -14 -65 -18 -129 -18 -270 0 -167 3 -195 27 -292 52 -204 119 -349 231
-502 215 -291 525 -478 897 -542 116 -20 334 -15 455 11 181 38 364 116 514
218 98 67 283 252 344 344 113 171 190 355 222 538 36 201 16 464 -50 660 -29
88 -110 255 -158 324 -284 421 -789 657 -1281 600z m269 -784 c270 -57 458
-289 459 -565 0 -110 -18 -181 -72 -283 -140 -269 -481 -373 -771 -235 -95 45
-206 158 -254 258 -109 230 -67 490 108 666 142 142 334 200 530 159z"/>
<path d="M2985 7775 c-51 -26 -93 -82 -105 -142 -8 -35 -10 -148 -8 -321 3
-245 5 -271 24 -312 26 -56 90 -115 141 -129 24 -7 221 -11 555 -11 l518 0 4
23 c26 128 54 239 83 322 59 173 172 376 288 519 25 30 45 57 45 60 0 3 -341
6 -757 6 -655 0 -762 -2 -788 -15z"/>
</g>
</svg>
