<?xml version="1.0" standalone="no"?>
<!DOCTYPE svg PUBLIC "-//W3C//DTD SVG 20010904//EN"
 "http://www.w3.org/TR/2001/REC-SVG-20010904/DTD/svg10.dtd">
<svg version="1.0" xmlns="http://www.w3.org/2000/svg"
 width="579.000000pt" height="587.000000pt" viewBox="0 0 579.000000 587.000000"
 preserveAspectRatio="xMidYMid meet">

<g transform="translate(0.000000,587.000000) scale(0.100000,-0.100000)"
fill="#000000" stroke="none">
<path d="M2626 5574 c-153 -28 -283 -97 -476 -254 -273 -222 -246 -212 -570
-214 -229 -2 -251 -4 -341 -28 -283 -77 -478 -265 -551 -535 -28 -103 -30
-305 -5 -408 75 -301 277 -584 479 -668 20 -9 43 -28 51 -44 39 -75 107 -536
151 -1028 41 -449 55 -721 65 -1235 9 -429 12 -454 68 -512 60 -63 142 -81
614 -133 446 -49 621 -59 827 -46 203 13 732 65 879 87 181 27 263 70 298 157
23 58 34 231 35 552 0 426 43 1032 110 1575 40 317 86 566 112 598 7 7 35 25
62 39 258 130 476 519 476 851 0 394 -231 678 -618 759 -81 17 -193 20 -432
14 -179 -5 -201 4 -285 109 -95 119 -240 218 -437 298 -190 77 -343 97 -512
66z m328 -300 c85 -21 208 -83 287 -142 123 -94 191 -182 304 -399 21 -41 44
-73 52 -73 9 0 88 38 177 84 181 95 242 116 332 116 204 0 442 -186 542 -423
76 -180 -27 -469 -226 -635 -32 -26 -115 -78 -185 -116 -70 -38 -132 -76 -136
-85 -25 -46 -89 -567 -161 -1311 -27 -284 -56 -446 -92 -524 -22 -50 -115 -64
-487 -76 -157 -5 -393 -14 -523 -21 -412 -22 -930 18 -1072 82 -35 16 -45 46
-76 234 -33 195 -55 378 -105 870 -41 398 -48 455 -76 580 -35 159 -73 205
-244 293 -103 54 -172 114 -234 208 -73 108 -104 210 -104 344 -1 80 4 121 21
175 61 199 247 362 452 397 136 23 274 -24 466 -158 51 -35 99 -67 107 -70 11
-4 33 28 78 113 34 65 77 141 95 168 107 167 300 307 502 365 84 23 222 26
306 4z m893 -4081 c-6 -258 -16 -325 -52 -349 -56 -37 -728 -69 -1285 -62
-282 4 -395 10 -550 28 -107 12 -198 25 -201 29 -5 5 -40 518 -39 579 0 9 220
12 1066 12 l1066 0 -5 -237z"/>
<path d="M1926 3558 c-22 -30 -21 -123 3 -355 11 -103 23 -231 27 -283 6 -97
22 -140 50 -140 43 0 68 162 69 445 0 300 -16 355 -102 355 -22 0 -37 -7 -47
-22z"/>
<path d="M3528 3569 c-30 -17 -30 -69 -4 -325 14 -137 29 -288 32 -337 4 -65
11 -93 25 -110 l19 -22 18 22 c34 39 47 159 47 423 0 264 -4 305 -36 338 -21
24 -71 29 -101 11z"/>
<path d="M2783 3508 c-31 -39 -38 -97 -38 -308 0 -191 3 -235 30 -394 18 -112
32 -171 36 -160 8 21 42 256 60 423 13 115 7 325 -11 383 -17 59 -54 85 -77
56z"/>
</g>
</svg>
